<svg width="25" height="25" viewBox="0 0 25 25" fill="none" xmlns="http://www.w3.org/2000/svg">
<mask id="mask0_40_63" style="mask-type:luminance" maskUnits="userSpaceOnUse" x="7" y="4" width="12" height="16">
<path d="M7 4H19V20H7V4Z" fill="white"/>
</mask>
<g mask="url(#mask0_40_63)">
<path d="M18.7062 7.70624C19.0969 7.31562 19.0969 6.68124 18.7062 6.29062C18.3156 5.89999 17.6812 5.89999 17.2906 6.29062L7.29059 16.2906C6.89996 16.6812 6.89996 17.3156 7.29059 17.7062C7.68121 18.0969 8.31559 18.0969 8.70621 17.7062L18.7062 7.70624ZM11 7.99999C11 7.46956 10.7893 6.96085 10.4142 6.58578C10.0391 6.21071 9.5304 5.99999 8.99996 5.99999C8.46953 5.99999 7.96082 6.21071 7.58575 6.58578C7.21068 6.96085 6.99996 7.46956 6.99996 7.99999C6.99996 8.53043 7.21068 9.03913 7.58575 9.41421C7.96082 9.78928 8.46953 9.99999 8.99996 9.99999C9.5304 9.99999 10.0391 9.78928 10.4142 9.41421C10.7893 9.03913 11 8.53043 11 7.99999ZM19 16C19 15.4696 18.7893 14.9609 18.4142 14.5858C18.0391 14.2107 17.5304 14 17 14C16.4696 14 15.9609 14.2107 15.5858 14.5858C15.2107 14.9609 15 15.4696 15 16C15 16.5304 15.2107 17.0391 15.5858 17.4142C15.9609 17.7893 16.4696 18 17 18C17.5304 18 18.0391 17.7893 18.4142 17.4142C18.7893 17.0391 19 16.5304 19 16Z" fill="#00C853"/>
</g>
</svg>
