<svg width="32" height="32" viewBox="0 0 32 32" fill="none" xmlns="http://www.w3.org/2000/svg">
<path d="M16.5 2C24.5082 2 31 8.49187 31 16.5C31 24.5082 24.5082 31 16.5 31C8.49187 31 2 24.5082 2 16.5C2 8.49187 8.49187 2 16.5 2Z" fill="#F97316"/>
<path d="M16.5 2C24.5082 2 31 8.49187 31 16.5C31 24.5082 24.5082 31 16.5 31C8.49187 31 2 24.5082 2 16.5C2 8.49187 8.49187 2 16.5 2Z" stroke="#E5E7EB"/>
<mask id="mask0_40_69" style="mask-type:luminance" maskUnits="userSpaceOnUse" x="10" y="9" width="13" height="14">
<path d="M10.1562 9.92969H22.8438V22.6172H10.1562V9.92969Z" fill="white"/>
</mask>
<g mask="url(#mask0_40_69)">
<path d="M22.6455 16.2734C22.6455 19.6675 19.8941 22.4189 16.5 22.4189C13.1059 22.4189 10.3545 19.6675 10.3545 16.2734C10.3545 12.8794 13.1059 10.1279 16.5 10.1279C19.8941 10.1279 22.6455 12.8794 22.6455 16.2734ZM19.1354 15.3979C19.2577 14.5802 18.635 14.1407 17.7836 13.8474L18.0598 12.7396L17.3854 12.5716L17.1165 13.6501C16.9393 13.606 16.7572 13.5643 16.5763 13.5231L16.8471 12.4374L16.1731 12.2694L15.8967 13.3767C15.75 13.3433 15.606 13.3103 15.4661 13.2755L15.4669 13.272L14.5369 13.0398L14.3575 13.76C14.3575 13.76 14.8579 13.8747 14.8473 13.8818C15.1204 13.9499 15.1698 14.1306 15.1616 14.2739L14.8469 15.5358C14.8658 15.5406 14.8901 15.5475 14.9171 15.5583C14.8946 15.5527 14.8706 15.5466 14.8457 15.5406L14.4047 17.3084C14.3713 17.3914 14.2867 17.5158 14.0957 17.4686C14.1024 17.4784 13.6055 17.3463 13.6055 17.3463L13.2708 18.1181L14.1484 18.3368C14.3116 18.3778 14.4716 18.4205 14.629 18.4609L14.35 19.5812L15.0236 19.7493L15.2999 18.6408C15.4786 18.6892 15.6577 18.7357 15.8373 18.7802L15.5619 19.8835L16.2363 20.0516L16.5154 18.9333C17.6653 19.1509 18.53 19.0631 18.8939 18.0231C19.1872 17.1859 18.8794 16.7028 18.2743 16.3879C18.7149 16.2863 19.0468 15.9966 19.1354 15.3979ZM17.5946 17.5582C17.3862 18.3956 15.9763 17.9429 15.5192 17.8295L15.8895 16.3451C16.3466 16.4592 17.8124 16.6851 17.5946 17.5582ZM17.8032 15.3859C17.6131 16.1475 16.4395 15.7605 16.0588 15.6657L16.3945 14.3195C16.7752 14.4143 18.0012 14.5913 17.8032 15.3859Z" fill="white"/>
</g>
</svg>
