<svg width="25" height="25" viewBox="0 0 25 25" fill="none" xmlns="http://www.w3.org/2000/svg">
<path d="M6 7C6 6.44687 5.55313 6 5 6C4.44687 6 4 6.44687 4 7V17.5C4 18.8813 5.11875 20 6.5 20H19C19.5531 20 20 19.5531 20 19C20 18.4469 19.5531 18 19 18H6.5C6.225 18 6 17.775 6 17.5V7ZM18.7063 9.70625C19.0969 9.31563 19.0969 8.68125 18.7063 8.29063C18.3156 7.9 17.6812 7.9 17.2906 8.29063L14 11.5844L12.2063 9.79063C11.8156 9.4 11.1813 9.4 10.7906 9.79063L7.29063 13.2906C6.9 13.6812 6.9 14.3156 7.29063 14.7063C7.68125 15.0969 8.31563 15.0969 8.70625 14.7063L11.5 11.9156L13.2937 13.7094C13.6844 14.1 14.3188 14.1 14.7094 13.7094L18.7094 9.70937L18.7063 9.70625Z" fill="#00C853"/>
</svg>
