<svg width="25" height="25" viewBox="0 0 25 25" fill="none" xmlns="http://www.w3.org/2000/svg">
<mask id="mask0_40_84" style="mask-type:luminance" maskUnits="userSpaceOnUse" x="3" y="4" width="20" height="16">
<path d="M3 4H23V20H3V4Z" fill="white"/>
</mask>
<g mask="url(#mask0_40_84)">
<path d="M15 5H19C19.5531 5 20 5.44687 20 6C20 6.55313 19.5531 7 19 7H15.45C15.2875 7.80625 14.7344 8.47188 14 8.79063V18H19C19.5531 18 20 18.4469 20 19C20 19.5531 19.5531 20 19 20H13H6.99998C6.44685 20 5.99998 19.5531 5.99998 19C5.99998 18.4469 6.44685 18 6.99998 18H12V8.79063C11.2656 8.46875 10.7125 7.80313 10.55 7H6.99998C6.44685 7 5.99998 6.55313 5.99998 6C5.99998 5.44687 6.44685 5 6.99998 5H11C11.4563 4.39375 12.1813 4 13 4C13.8188 4 14.5438 4.39375 15 5ZM16.7375 14H21.2625L19 10.1188L16.7375 14ZM19 17C17.0344 17 15.4 15.9375 15.0625 14.5344C14.9813 14.1906 15.0938 13.8375 15.2719 13.5312L18.2469 8.43125C18.4031 8.1625 18.6906 8 19 8C19.3094 8 19.5969 8.16563 19.7531 8.43125L22.7281 13.5312C22.9063 13.8375 23.0188 14.1906 22.9375 14.5344C22.6 15.9375 20.9656 17 19 17ZM6.96248 10.1188L4.69998 14H9.2281L6.96248 10.1188ZM3.0281 14.5344C2.94685 14.1906 3.05935 13.8375 3.23747 13.5312L6.21248 8.43125C6.36873 8.1625 6.65623 8 6.9656 8C7.27498 8 7.56247 8.16563 7.71872 8.43125L10.6938 13.5312C10.8719 13.8375 10.9844 14.1906 10.9031 14.5344C10.5625 15.9375 8.9281 17 6.96248 17C4.99685 17 3.3656 15.9375 3.0281 14.5344Z" fill="#D4AF37"/>
</g>
</svg>
