<svg width="25" height="25" viewBox="0 0 25 25" fill="none" xmlns="http://www.w3.org/2000/svg">
<mask id="mask0_40_77" style="mask-type:luminance" maskUnits="userSpaceOnUse" x="4" y="5" width="16" height="16">
<path d="M4 5H20V21H4V5Z" fill="white"/>
</mask>
<g mask="url(#mask0_40_77)">
<path d="M20 7.5C20 8.0625 19.5531 8.58125 18.8 9C17.8906 9.50313 16.5344 9.85937 14.9781 9.96562C14.8625 9.90937 14.7469 9.85625 14.625 9.80937C13.3937 9.29375 11.7563 9 10 9C9.74062 9 9.4875 9.00625 9.23438 9.01875L9.2 9C8.44687 8.58125 8 8.0625 8 7.5C8 6.11875 10.6875 5 14 5C17.3125 5 20 6.11875 20 7.5ZM9.02187 10.0344C9.34062 10.0125 9.66875 10 10 10C11.9438 10 13.6688 10.3844 14.7656 10.9812C15.5406 11.4031 16 11.9281 16 12.5C16 12.625 15.9781 12.7469 15.9344 12.8656C15.7906 13.2781 15.4031 13.6563 14.8406 13.975C14.8375 13.9781 14.8313 13.9781 14.8281 13.9812C14.8187 13.9875 14.8094 13.9906 14.8 13.9969C13.7063 14.6031 11.9625 14.9969 10 14.9969C8.1375 14.9969 6.47187 14.6437 5.36875 14.0875C5.30937 14.0594 5.25312 14.0281 5.19687 13.9969C4.44687 13.5812 4 13.0625 4 12.5C4 11.4125 5.66875 10.4844 8 10.1438C8.32812 10.0969 8.66875 10.0594 9.02187 10.0344ZM17 12.5C17 11.8156 16.6687 11.2531 16.2469 10.8313C17.1312 10.6938 17.9406 10.475 18.6281 10.1906C19.1375 9.97813 19.6125 9.71563 20 9.39375V10.5C20 11.1031 19.4844 11.6594 18.6313 12.0906C18.175 12.3219 17.6187 12.5187 16.9937 12.6687C16.9969 12.6125 17 12.5594 17 12.5031V12.5ZM16 15.5C16 16.0625 15.5531 16.5813 14.8 17C14.7438 17.0312 14.6875 17.0594 14.6281 17.0906C13.5281 17.6469 11.8625 18 10 18C8.0375 18 6.29375 17.6062 5.2 17C4.44688 16.5813 4 16.0625 4 15.5V14.3938C4.39062 14.7156 4.8625 14.9781 5.37188 15.1906C6.60625 15.7063 8.24375 16 10 16C11.7563 16 13.3938 15.7063 14.6281 15.1906C14.8719 15.0906 15.1063 14.975 15.3281 14.85C15.5187 14.7438 15.6969 14.625 15.8656 14.5C15.9125 14.4656 15.9563 14.4281 16 14.3938V14.5V14.6781V15.5ZM17 15.5V14.5V13.6906C17.5938 13.5594 18.1406 13.3938 18.6281 13.1906C19.1375 12.9781 19.6125 12.7156 20 12.3938V13.5C20 13.8281 19.8438 14.1562 19.5344 14.4656C19.025 14.975 18.1281 15.3937 16.9937 15.6656C16.9969 15.6125 17 15.5562 17 15.5ZM10 19C11.7563 19 13.3938 18.7063 14.6281 18.1906C15.1375 17.9781 15.6125 17.7156 16 17.3938V18.5C16 19.8813 13.3125 21 10 21C6.6875 21 4 19.8813 4 18.5V17.3938C4.39062 17.7156 4.8625 17.9781 5.37188 18.1906C6.60625 18.7063 8.24375 19 10 19Z" fill="#D4AF37"/>
</g>
</svg>
