<svg width="32" height="32" viewBox="0 0 32 32" fill="none" xmlns="http://www.w3.org/2000/svg">
<path d="M15.5 2C23.5082 2 30 8.49187 30 16.5C30 24.5082 23.5082 31 15.5 31C7.49187 31 1 24.5082 1 16.5C1 8.49187 7.49187 2 15.5 2Z" fill="#D4AF37"/>
<path d="M15.5 2C23.5082 2 30 8.49187 30 16.5C30 24.5082 23.5082 31 15.5 31C7.49187 31 1 24.5082 1 16.5C1 8.49187 7.49187 2 15.5 2Z" stroke="#E5E7EB"/>
<mask id="mask0_40_51" style="mask-type:luminance" maskUnits="userSpaceOnUse" x="9" y="9" width="13" height="14">
<path d="M9.15625 9.92969H21.8438V22.6172H9.15625V9.92969Z" fill="white"/>
</mask>
<g mask="url(#mask0_40_51)">
<path d="M21.8438 11.9121C21.8438 12.3582 21.4894 12.7695 20.8922 13.1016C20.1711 13.5005 19.0956 13.7831 17.8616 13.8673C17.7699 13.8227 17.6782 13.7805 17.5816 13.7434C16.6052 13.3345 15.3067 13.1016 13.9141 13.1016C13.7083 13.1016 13.5077 13.1065 13.307 13.1164L13.2797 13.1016C12.6825 12.7695 12.3281 12.3582 12.3281 11.9121C12.3281 10.8168 14.4593 9.92969 17.0859 9.92969C19.7126 9.92969 21.8438 10.8168 21.8438 11.9121ZM13.1384 13.9218C13.3912 13.9044 13.6514 13.8945 13.9141 13.8945C15.4554 13.8945 16.8233 14.1993 17.693 14.6726C18.3076 15.0071 18.6719 15.4235 18.6719 15.877C18.6719 15.9761 18.6546 16.0727 18.6199 16.1669C18.5059 16.494 18.1985 16.7938 17.7525 17.0466C17.75 17.0491 17.7451 17.0491 17.7426 17.0515C17.7352 17.0565 17.7277 17.059 17.7203 17.064C16.853 17.5446 15.4703 17.8569 13.9141 17.8569C12.4371 17.8569 11.1164 17.5769 10.2417 17.1358C10.1945 17.1135 10.15 17.0887 10.1054 17.064C9.51061 16.7344 9.15625 16.323 9.15625 15.877C9.15625 15.0146 10.4796 14.2786 12.3281 14.0085C12.5883 13.9714 12.8585 13.9417 13.1384 13.9218ZM19.4648 15.877C19.4648 15.3343 19.2022 14.8882 18.8676 14.5536C19.5689 14.4446 20.2107 14.2712 20.7559 14.0457C21.1598 13.8772 21.5364 13.6691 21.8438 13.4138V14.291C21.8438 14.7692 21.4348 15.2104 20.7583 15.5523C20.3966 15.7357 19.9555 15.8918 19.4599 16.0108C19.4624 15.9661 19.4648 15.9241 19.4648 15.8794V15.877ZM18.6719 18.2559C18.6719 18.7019 18.3175 19.1133 17.7203 19.4453C17.6757 19.4701 17.6311 19.4924 17.584 19.5172C16.7117 19.9582 15.391 20.2383 13.9141 20.2383C12.3578 20.2383 10.9751 19.9261 10.1078 19.4453C9.51061 19.1133 9.15625 18.7019 9.15625 18.2559V17.3786C9.46601 17.6339 9.84019 17.8421 10.2441 18.0105C11.223 18.4194 12.5214 18.6523 13.9141 18.6523C15.3067 18.6523 16.6052 18.4194 17.584 18.0105C17.7773 17.9312 17.9632 17.8395 18.1391 17.7405C18.2903 17.6562 18.4315 17.562 18.5653 17.4629C18.6025 17.4356 18.6372 17.4059 18.6719 17.3786V17.4629V17.6042V18.2559ZM19.4648 18.2559V17.4629V16.8211C19.9356 16.717 20.3693 16.5856 20.7559 16.4246C21.1598 16.2561 21.5364 16.048 21.8438 15.7927V16.6699C21.8438 16.9301 21.7199 17.1903 21.4745 17.4356C21.0706 17.8395 20.3594 18.1716 19.4599 18.3872C19.4624 18.345 19.4648 18.3004 19.4648 18.2559ZM13.9141 21.0312C15.3067 21.0312 16.6052 20.7983 17.584 20.3894C17.9879 20.221 18.3646 20.0128 18.6719 19.7575V20.6348C18.6719 21.7301 16.5407 22.6172 13.9141 22.6172C11.2874 22.6172 9.15625 21.7301 9.15625 20.6348V19.7575C9.46601 20.0128 9.84019 20.221 10.2441 20.3894C11.223 20.7983 12.5214 21.0312 13.9141 21.0312Z" fill="white"/>
</g>
</svg>
